<?xml version="1.0" standalone="no"?>
<!DOCTYPE svg PUBLIC "-//W3C//DTD SVG 20010904//EN"
 "http://www.w3.org/TR/2001/REC-SVG-20010904/DTD/svg10.dtd">
<svg version="1.0" xmlns="http://www.w3.org/2000/svg"
 width="303.000000pt" height="303.000000pt" viewBox="0 0 303.000000 303.000000"
 preserveAspectRatio="xMidYMid meet">
<metadata>
Created by potrace 1.14, written by Peter Selinger 2001-2017
</metadata>
<g transform="translate(0.000000,303.000000) scale(0.100000,-0.100000)"
fill="#000000" stroke="none">
<path d="M796 2339 c-75 -23 -107 -42 -183 -109 -64 -57 -218 -145 -270 -155
-57 -10 -81 -44 -45 -64 41 -22 117 1 309 95 169 84 172 84 265 89 103 5 228
-36 236 -78 2 -9 -17 -41 -42 -71 -47 -54 -51 -78 -18 -91 12 -4 27 5 49 32
23 28 33 34 37 23 24 -68 26 -70 48 -67 12 2 24 9 26 16 3 8 8 9 17 1 17 -14
37 -5 60 30 23 34 35 38 35 12 0 -34 26 -58 62 -56 56 3 108 16 108 27 0 5 9
2 19 -7 22 -20 34 -16 70 27 l25 30 18 -42 c12 -30 23 -41 35 -39 29 5 31 16
11 75 -10 31 -18 58 -18 60 0 2 22 25 49 52 37 37 46 52 39 65 -13 23 -41 20
-68 -9 -28 -30 -40 -32 -40 -7 0 23 -19 42 -43 42 -19 0 -20 -18 -3 -96 3 -14
-11 -40 -41 -78 -39 -48 -48 -55 -55 -41 -13 23 19 119 49 149 37 37 27 61
-26 62 -46 0 -62 -16 -44 -44 11 -19 -5 -72 -22 -72 -6 0 -19 6 -29 13 -18 13
-17 15 9 35 19 15 25 27 20 41 -10 32 -37 29 -70 -8 l-30 -34 -5 28 c-6 32
-30 51 -54 42 -13 -5 -15 -11 -6 -26 7 -13 7 -22 0 -26 -5 -3 -10 0 -10 8 0
20 -36 51 -45 38 -8 -14 -34 0 -90 44 -107 87 -233 118 -339 84z m435 -264
l30 -16 -23 -29 c-13 -16 -26 -29 -31 -29 -9 -1 -27 44 -27 70 0 23 11 24 51
4z m185 -60 c-19 -14 -36 -12 -36 6 0 5 12 9 28 9 26 -1 26 -1 8 -15z"/>
<path d="M845 2004 c-105 -27 -161 -51 -220 -90 -38 -26 -72 -49 -75 -53 -3
-3 -27 -24 -55 -46 -175 -141 -373 -410 -436 -592 -11 -32 -19 -59 -19 -60 0
-2 0 -4 -1 -5 -14 -51 -13 -126 0 -177 41 -146 156 -209 326 -176 50 10 64 15
111 37 92 44 168 102 285 215 64 62 118 113 121 113 3 0 5 -10 5 -22 -2 -67
58 -148 109 -148 43 0 106 40 171 108 35 36 63 64 64 62 0 -3 2 -19 3 -37 8
-82 75 -137 157 -130 69 6 135 43 211 119 61 62 68 67 68 44 0 -35 36 -115 63
-137 12 -10 33 -18 47 -18 42 -1 112 37 162 88 26 26 66 56 90 66 24 11 76 50
117 87 40 37 80 68 89 68 15 0 81 -66 130 -130 15 -19 33 -39 39 -43 7 -4 13
-12 13 -17 0 -18 -105 -116 -137 -129 -18 -8 -33 -17 -33 -22 0 -14 52 -31 77
-26 12 2 24 0 25 -5 6 -16 78 3 105 28 19 17 30 21 42 14 42 -22 133 14 159
62 28 52 66 88 97 94 16 3 31 7 34 9 8 9 -22 35 -41 35 -11 0 -31 9 -45 20
-14 11 -35 20 -45 20 -22 0 -22 3 8 107 19 70 37 79 106 51 29 -12 72 -34 94
-49 23 -16 44 -26 47 -23 4 5 1 76 -8 137 -2 16 -16 47 -30 69 -26 39 -28 40
-67 34 -22 -4 -50 -14 -62 -24 -53 -41 -136 -148 -167 -212 -34 -70 -48 -81
-69 -57 -26 29 -127 179 -153 226 -15 29 -37 55 -49 60 -51 19 -66 4 -241
-219 -7 -8 -20 -28 -30 -43 -42 -65 -145 -137 -196 -137 -12 0 -33 11 -46 24
-33 33 -23 59 59 147 64 69 110 147 104 176 -5 26 -32 36 -73 29 -58 -11 -141
-100 -193 -207 -35 -69 -52 -92 -93 -123 -62 -46 -125 -75 -162 -76 -35 0 -77
40 -77 75 0 21 9 30 58 52 166 77 252 161 252 246 0 77 -79 89 -197 31 -92
-46 -169 -121 -211 -207 -30 -61 -81 -118 -150 -166 -84 -59 -149 46 -91 148
12 23 26 41 30 41 4 0 42 45 84 101 113 151 175 283 180 387 4 95 -32 101
-119 21 -123 -113 -263 -364 -299 -537 -16 -76 -10 -68 -137 -182 -58 -52
-210 -148 -267 -170 -171 -64 -276 -3 -275 159 1 148 134 379 340 590 140 143
244 212 288 192 15 -7 24 -19 24 -33 0 -33 -44 -122 -94 -192 -48 -66 -146
-166 -127 -129 18 35 -6 39 -42 7 -73 -67 -121 -124 -145 -176 -35 -70 -14
-118 50 -118 96 0 381 310 444 484 39 108 19 220 -43 244 -43 16 -57 19 -68
16z m380 -291 c-9 -48 -46 -121 -107 -209 -44 -65 -88 -115 -88 -102 0 17 46
135 77 196 38 74 96 152 115 152 6 0 8 -14 3 -37z m335 -258 c0 -45 -65 -116
-149 -163 -44 -25 -49 -20 -27 32 31 75 176 182 176 131z"/>
<path d="M1991 1727 c-55 -28 -85 -105 -54 -139 27 -30 67 -22 102 17 39 44
42 96 9 119 -27 19 -27 19 -57 3z"/>
<path d="M900 872 c-58 -38 -95 -78 -114 -124 -15 -34 -14 -38 5 -62 30 -38
75 -32 139 16 28 21 53 38 55 38 3 0 5 -9 5 -20 0 -25 8 -25 36 1 l23 21 -6
-21 c-6 -24 15 -28 47 -9 16 10 23 10 37 -4 15 -16 18 -16 44 -1 25 15 28 15
44 -1 16 -15 18 -15 42 2 25 19 26 19 45 0 18 -18 19 -18 58 2 22 11 40 25 40
30 0 13 -6 13 -29 -2 -11 -6 -26 -8 -37 -3 -17 6 -15 9 10 16 48 14 65 59 22
59 -15 0 -41 -16 -66 -40 -61 -58 -97 -53 -44 6 22 25 54 83 54 99 0 3 -6 5
-13 5 -18 0 -61 -49 -87 -100 -20 -39 -44 -59 -56 -47 -4 3 8 24 26 45 17 22
30 48 28 58 -3 17 -4 17 -21 0 -9 -10 -15 -22 -12 -27 4 -5 -1 -9 -10 -9 -17
0 -33 -14 -51 -45 -6 -10 -17 -21 -24 -23 -11 -4 -10 2 4 23 28 43 6 54 -41
20 l-38 -28 40 43 c22 24 46 50 53 58 15 16 16 42 2 42 -13 0 -69 -55 -97 -95
-24 -34 -115 -92 -153 -97 -23 -3 -25 0 -24 35 1 30 10 47 40 79 40 40 94 75
94 60 0 -10 -43 -52 -53 -52 -10 0 -47 -39 -47 -49 0 -57 121 35 124 93 1 26
-3 31 -24 34 -15 2 -44 -9 -70 -26z m460 -86 c0 -3 -4 -8 -10 -11 -5 -3 -10
-1 -10 4 0 6 5 11 10 11 6 0 10 -2 10 -4z"/>
<path d="M1553 880 c-28 -11 -59 -58 -47 -70 13 -13 56 0 51 14 -3 7 11 17 29
23 54 16 37 -7 -33 -46 -65 -36 -89 -67 -69 -91 6 -8 18 -14 26 -14 8 1 27 2
43 3 30 1 71 36 62 52 -4 5 -11 6 -17 3 -17 -11 -78 -22 -73 -14 3 4 24 18 47
30 69 36 89 69 65 108 -9 14 -51 15 -84 2z"/>
<path d="M1713 868 c-58 -41 -91 -126 -61 -156 55 -55 178 74 148 154 -12 31
-45 31 -87 2z m50 -65 c-40 -64 -93 -93 -85 -47 6 31 50 82 74 86 30 4 33 -5
11 -39z"/>
<path d="M1871 878 c-26 -9 -57 -56 -45 -68 14 -13 66 0 60 16 -3 7 7 17 25
23 45 16 36 -6 -17 -37 -25 -15 -60 -39 -77 -53 l-30 -26 21 -21 c15 -15 29
-19 49 -15 15 2 34 6 42 7 14 3 41 34 41 48 0 4 -12 3 -26 -2 -14 -6 -37 -10
-52 -10 -23 0 -20 4 23 25 58 30 75 45 79 71 8 47 -31 65 -93 42z"/>
<path d="M2053 870 c-37 -22 -43 -35 -13 -27 18 5 18 3 -4 -27 -13 -17 -30
-48 -37 -69 -12 -33 -11 -39 1 -47 22 -14 30 -12 30 8 0 9 16 43 35 75 32 53
46 107 28 107 -5 0 -23 -9 -40 -20z"/>
</g>
</svg>
